# xmcd CD database file
#
# Track frame offsets:
#	150
#	22363
#	49440
#	71118
#	96795
#	115948
#	135707
#	168103
#	190090
#	208073
#	226658
#	243505
#
# Disc length: 3463 seconds
#
# Revision: 5
# Processed by: cddbd v1.5PL3 Copyright (c) Steve Scherf et al.
# Submitted via: CDex 1.51
#
DISCID=ac0d850c
DTITLE=Lyle Lovett - Joshua Judges Ruth
DYEAR=1992
DGENRE=Country
TTITLE0=I've Been To Memphis
TTITLE1=Church
TTITLE2=She's Already Made Up Her Mind
TTITLE3=North Dakota
TTITLE4=You've Been So Good Up To Now
TTITLE5=All My Love Is Gone
TTITLE6=Since The Last Time
TTITLE7=Baltimore
TTITLE8=Family Reserve
TTITLE9=She's Leaving Me Because She Really Wants To
TTITLE10=Flyswatter/Ice Water Blues (Monte Trenckmann's Blues)
TTITLE11=She Makes Me Feel Good
EXTD=YEAR: 1992
EXTT0=
EXTT1=
EXTT2=
EXTT3=
EXTT4=
EXTT5=
EXTT6=
EXTT7=
EXTT8=
EXTT9=
EXTT10=
EXTT11=
PLAYORDER=
